<svg xmlns="http://www.w3.org/2000/svg" version="1.1" xmlns:xlink="http://www.w3.org/1999/xlink" xmlns:svgjs="http://svgjs.dev/svgjs" width="1440" height="560" preserveAspectRatio="none" viewBox="0 0 1440 560"><g mask="url(&quot;#SvgjsMask1023&quot;)" fill="none"><rect width="1440" height="560" x="0" y="0" fill="url(&quot;#SvgjsLinearGradient1024&quot;)"></rect><path d="M682.324,556.748C710.9,555.102,726.156,525.983,739.574,500.7C751.839,477.589,762.122,451.727,750.5,428.286C737.704,402.476,711.122,384.462,682.324,385.23C654.595,385.97,633.899,407.659,620.171,431.763C606.616,455.562,600.191,483.503,612.386,508.026C625.945,535.293,651.922,558.499,682.324,556.748" fill="rgba(28, 83, 142, 0.4)" class="triangle-float2"></path><path d="M887.99 191.65 a141.64 141.64 0 1 0 283.28 0 a141.64 141.64 0 1 0 -283.28 0z" fill="rgba(28, 83, 142, 0.4)" class="triangle-float1"></path><path d="M574.8753001878247 427.1282866429247L704.8711475709389 297.3799810487231 550.5369411051797 253.1253594799195z" fill="rgba(28, 83, 142, 0.4)" class="triangle-float3"></path><path d="M158.47036471796963 130.57321449990968L185.73181343302844 214.4753264097936 269.6339253429124 187.21387769473478 242.37247662785356 103.31176578485086z" fill="rgba(28, 83, 142, 0.4)" class="triangle-float2"></path><path d="M1257.263181977156 391.9307186555683L1159.7182988287366 275.68125372425726 1043.4688338974256 373.22613687267653 1141.013717045845 489.47560180398756z" fill="rgba(28, 83, 142, 0.4)" class="triangle-float1"></path><path d="M112.50645959124274 438.13244063702024L199.06861161844398 451.8425386391359 212.77870962055965 365.28038661193466 126.21655759335842 351.570288609819z" fill="rgba(28, 83, 142, 0.4)" class="triangle-float2"></path></g><defs><mask id="SvgjsMask1023"><rect width="1440" height="560" fill="#ffffff"></rect></mask><linearGradient x1="15.28%" y1="-39.29%" x2="84.72%" y2="139.29%" gradientUnits="userSpaceOnUse" id="SvgjsLinearGradient1024"><stop stop-color="#0e2a47" offset="0"></stop><stop stop-color="#00459e" offset="1"></stop></linearGradient><style>
                @keyframes float1 {
                    0%{transform: translate(0, 0)}
                    50%{transform: translate(-10px, 0)}
                    100%{transform: translate(0, 0)}
                }

                .triangle-float1 {
                    animation: float1 5s infinite;
                }

                @keyframes float2 {
                    0%{transform: translate(0, 0)}
                    50%{transform: translate(-5px, -5px)}
                    100%{transform: translate(0, 0)}
                }

                .triangle-float2 {
                    animation: float2 4s infinite;
                }

                @keyframes float3 {
                    0%{transform: translate(0, 0)}
                    50%{transform: translate(0, -10px)}
                    100%{transform: translate(0, 0)}
                }

                .triangle-float3 {
                    animation: float3 6s infinite;
                }
            </style></defs></svg>